<?xml version="1.0" encoding="UTF-8"?>
<svg id="Layer_1" xmlns="http://www.w3.org/2000/svg" version="1.1" viewBox="0 0 1024 1024">
  <!-- Generator: Adobe Illustrator 29.4.0, SVG Export Plug-In . SVG Version: 2.1.0 Build 152)  -->
  <defs>
    <style>
      .st0 {
        font-family: Candara-Bold, Candara;
        font-size: 500px;
      }

      .st0, .st1 {
        fill: #fed700;
        font-weight: 700;
      }

      .st2 {
        fill: #133358;
      }

      .st1 {
        font-family: Arial-BoldMT, Arial;
        font-size: 347.14px;
      }
    </style>
  </defs>
  <path class="st2" d="M803,523c-2.07-10.91-4.71-52.49-4-57,2.53-16.12-10.13-39.62-13-56-2.33-5.67-4.67-11.33-7-17-.33-1.33-.67-2.67-1-4-11.34-13.79-16.47-35.93-32-54h-2c-.33-.67-.67-1.33-1-2-6.67-7.67-13.33-15.33-20-23-.67-10.65-66.8-54.34-82-62-29.07-14.66-60.95-17.66-94-27-14.67-1-29.33-2-44-3-14,1.67-28,3.33-42,5-19.46,6.17-45.07,8.88-69,20-87.45,40.66-133.19,100.73-166,202-3.03,9.36-10.41,73.13-6,87,1.33,7.67,2.67,15.33,4,23-1.42,10.78,5.03,24.88,8,33,20.69,56.62,29.03,67.86,62,115,22.4,32.03,53.82,41.95,72,58,5.67,2.67,11.33,5.33,17,8,15.78,14.71,83.16,29.56,105,27,8.02-.94,32.12,7.97,42,2,8.52-5.14,25.11,1.39,34-4,5.51-3.34,21.73-3.19,26-6,17.66-6.67,35.34-13.33,53-20,39.16-18.87,82.33-55.4,108-94,11.65-17.52,17.39-34.3,27-48,6.83-9.74,28.42-85.04,25-103ZM781,532c-.7,1.88-12.21,51.7-12,53,1.68,10.43-14.08,36.79-20,47,2.06,3.31-20.92,33.82-27,41,.33.67.67,1.33,1,2h-2c-9.81,9.11-18.58,20.52-26,30-2,1.67-4,3.33-6,5-10.33,8-20.67,16-31,24-2.83-2.17-18.01,8.56-23,13,0,0-42.25,17.03-59,20,27.85-19.99,98.36-51.32,98-90-7.32-4.87-24.97-6.36-35-13-6.42-4.24-2.67-10.65-8-16-5.65-5.68-61.59-32.46-80-25-13.39,5.43-10,7.58-26,9-4.67-4.61-4-13.89-4-19-3.67-1.67-7.33-3.33-11-5,.33-5.67.67-11.33,1-17-2.28-3.81-1.86-2.59-5-3-5.13-7.97-18.94,25.79-32-1-.75-30.23,28.04-27.09,44-29,.6,6.41,7.86,15.58,15,19,1.88-1.39,1.64-.95,3-3-.67-8-1.33-16-2-24,2.44.7,42.61-48.13,43-49,7.33-.67,14.67-1.33,22-2,3-2.28,3.42-3.15,5-7-2-1-4-2-6-3v-7c-1.2-5.05,6.27-9.03,12-10-.4,4.94-.88,6.22,1,10,2.99,5.33,8.25,6.45,17,6l3-3c-4.57-25.38-24.5-39.23-36-61-3.67,1.33-7.33,2.67-11,4-7.32-7.2-22.73-32.99-32-12,3.25,16.73-2.35,34.87-5,48-.67.33-1.33.67-2,1-2.33-6.33-4.67-12.67-7-19-9.51-9.36-31.11-6.77-30-23,.47-7.24,12.88-12.25,15-20,2.33.63,7.93.65,11,1,5.9.53,10.09-20.09,14-31,6.48-.84,6.42.74,13,2,1,3.67,2,7.33,3,11-4,3-8,6-12,9,4.26,13.51,27.89,12.01,31,20,4.41-.16,4.92.12,7-2,3.75-4.89.66-11.65-1-17,7.65-3.69,7.37-4.27,9-11-14.86-20.05-30.44-40.5-57-45,2.64-3.19,8.34-2.56,12-8,6.03-8.95,6.71-22.47,18-29,1,2.67,2,5.33,3,8-2.79,1.74-1.54,6.26-6,9,.96,3.7.47,6.02,4,9,6.11,6.12,11.65,1.01,20,6,3.97,2.37,4.06,7.99,8,8,1,5.67,2,11.33,3,17,6.56,12.45,25.67,70.71,43,65,.67.33,1.33.67,2,1,3.24-5.76.96-10.69,3-18,3.92-14.07,15.31-17.46,28-25-4.27-63.5-58.28-96.63-106-119-9.68-4.54-40.19,6.77-47,9-4.92,8.06-.64,19.28,5,28-.67.33-1.33.67-2,1-10-5.33-20-10.67-30-16-5.29,3.29-8.69,3.4-12,11,1.94,1.11.28-.12,1,2,5.91,5.72,13.87,7.33,19,14-.67-.33-1.33-.67-2-1v2c-5.33-2-10.67-4-16-6-2.97,1.81-3.36,1.71-5,5-14.96-3.93-25.62-8.58-37,4v2c4.67,1,9.33,2,14,3,4,4.33,8,8.67,12,13,7.33-1.67,14.67-3.33,22-5h1c.67,1,1.33,2,2,3-4,3.67-8,7.33-12,11-16.54-1.13-23.65-9.66-39-15-8.1,5.94-15.16,6.29-14,17-1.25,3.68,15.02,11.97,18,17v1c-3.23.23-3.87-.17-7-1-.76.25-1.53.51-2.29.76.35.13.27.23-.71.24.24-.08.47-.16.71-.24-.78-.3-3.71-.76-3.71-.76-14.32-12.72-33.37,2.43-40,0-13.65-4.99-23.26-13.83-41-18-17.88-4.2-24.48,8.59-34,11-4.21,5.95-3.69,9.21-3,17-8.21-2.32-18.59,9.9-20,13-.33,3-.67,6-1,9l8,4c-5.82,4.08-10.55,6.59-15,12,1.05,9.05,4.73,11.74,7,18-6.67,6.59-15.46,11.18-14,21,25.37-4.6,30.36-26.23,57-32,24.94-5.41,32.51,27.3,38,40,.37.85,5.55,11.62,12,22,6.12,9.85-10.18,23.82-5,39,2.85,8.33,29.02,61.08,41,67h4c-1.62-7.25-6.07-12.7-6-19-.33-1-.67-2-1-3,14.35,13.52,14.22,32.83,25,42h2c9.39,8.28,30.93,6.77,47,17,12.81,8.15,13.98,21.37,35,20,1,3.33,2,6.67,3,10-.9-.37-16.53,19.21-14,29,3.5,13.54,24.65,35.75,25,40,9.98,6.08-19.65,49.03-24,52-24.69,4.35-53.18-1.16-68-5-92.75-24.04-145.52-66.58-184-139-24.48-46.07-42.94-126.24-23-180,1.67-8.67,3.33-17.33,5-26,7-15.67,14-31.33,21-47,15.75-17.84,22.82-30.54,37-51,23.55-33.98,69.01-43.3,99-67,.84.96,15.87-2.27,20-5,7.52-4.98,39.58-8.35,59-12,10.67-.33,21.33-.67,32-1,27.1,10.26,61.27,4.57,79,18,3.67.33,7.33.67,11,1,10.2,8.58,27.77,12.62,39,19-2.88.72,2.33,3.53,3,4,12.18,8.57,18.5,11.56,28,18,1.33,2,2.67,4,4,6,2.02-1.4,24.48,21.59,27,25,2,2.33,4,4.67,6,7,5.77.11,14.67,21.29,20,29,1.51-1.88,3,3,3,3,11.1,22.05,19.81,36.66,29,61,2.86,7.58,17.39,80.22,10,100Z"/>
  <text class="st0" transform="translate(276.56 678.4)"><tspan x="0" y="0">E</tspan></text>
  <text class="st1" transform="translate(539.07 616.99)"><tspan x="0" y="0">Z</tspan></text>
</svg>